<svg width="100" height="100" viewBox="0 0 100 100" fill="none" xmlns="http://www.w3.org/2000/svg">
<circle cx="50.0873" cy="50.0734" r="49.0215" transform="rotate(7.62 50.0873 50.0734)" fill="white"/>
<circle cx="50.0873" cy="50.0734" r="48.3089" transform="rotate(7.62 50.0873 50.0734)" stroke="#0A0A0A" stroke-width="1.42517"/>
<path d="M18.7381 54.7553L14.3518 38.4464L19.1205 38.3893L20.181 43.1394C20.6174 45.8294 20.7927 48.5553 20.7045 51.279L22.2 51.2705C22.1161 48.9071 22.295 46.5416 22.7335 44.2176L24.1583 38.3474L29.4105 38.3133L30.963 44.1648C31.4448 46.4794 31.6674 48.8404 31.6269 51.2042L33.0941 51.1989C32.9941 48.5062 33.1223 45.8099 33.4774 43.1389L34.5266 38.3096L39.0276 38.2793L35.0042 54.6378L29.8736 54.6464L28.217 48.1693C27.7472 45.994 27.5523 43.7682 27.6368 41.5443L26.1413 41.5528C26.2431 43.776 26.0711 46.0033 25.6294 48.1846L23.994 54.6939L18.7381 54.7553Z" fill="#0A0A0A"/>
<path d="M41.1919 48.494C42.0004 42.4509 44.6356 33.6635 52.0785 34.6593C59.5213 35.655 59.6763 45.4065 58.9455 50.8691C58.2147 56.3317 54.9211 65.3647 48.0928 64.4512C41.2645 63.5376 40.3835 54.537 41.1919 48.494ZM54.3565 50.2065C55.1037 44.6209 54.388 38.5408 51.6362 38.1727C48.8844 37.8045 46.5683 43.4791 45.8211 49.0646C45.0738 54.6502 45.8397 60.5633 48.5915 60.9314C51.3433 61.2996 53.6147 55.7511 54.3565 50.2065Z" fill="#0A0A0A"/>
<path d="M63.4287 58.7675L63.7402 41.8916L68.3263 43.2002L68.0351 48.0266C67.7088 50.7329 67.1191 53.4009 66.2743 55.9927L67.7081 56.393C68.2836 54.1022 69.1098 51.8818 70.1717 49.7721L73.1668 44.5289L78.2362 45.9647L78.1252 51.9899C77.9411 54.362 77.4877 56.7055 76.7737 58.9751L78.1939 59.3736C78.8362 56.7566 79.706 54.2007 80.7935 51.7352L83.1159 47.3126L87.4507 48.525L79.0918 63.1566L74.1438 61.7996L74.3426 55.119C74.4937 52.898 74.9202 50.7043 75.6124 48.5885L74.1717 48.1873C73.6576 50.3523 72.8756 52.4447 71.844 54.4163L68.4749 60.2211L63.4287 58.7675Z" fill="#0A0A0A"/>
<rect x="1.20181" y="1.50625" width="97.7682" height="97.1337" rx="48.5669" fill="white"/>
<path d="M25.1888 58.914C23.5787 58.914 22.3022 58.5345 21.3591 57.7755C20.4161 56.9934 19.9446 55.9239 19.9446 54.5669C19.9446 53.2328 20.3816 52.1978 21.2556 51.4618C22.1527 50.7257 23.2107 50.2197 24.4297 49.9437C25.6488 49.6447 27.0288 49.4377 28.5699 49.3227C29.8809 49.2307 30.8814 49.0697 31.5715 48.8397C32.2845 48.6097 32.641 48.1842 32.641 47.5631C32.641 46.4131 32.25 45.5046 31.468 44.8375C30.6859 44.1705 29.7084 43.837 28.5354 43.837C27.2703 43.837 26.2238 44.1935 25.3958 44.9065C24.5907 45.5966 24.1077 46.5626 23.9467 47.8046H20.5656C20.6806 46.3556 21.0946 45.1135 21.8076 44.0785C22.5437 43.0435 23.4982 42.2614 24.6712 41.7324C25.8673 41.1804 27.1783 40.9044 28.6044 40.9044C30.0534 40.9044 31.33 41.1804 32.434 41.7324C33.561 42.2845 34.4351 43.0895 35.0561 44.1475C35.6771 45.2055 35.9876 46.4476 35.9876 47.8736V55.2914H38.1957V58.5H32.6755V52.6348C32.2155 54.4749 31.33 55.9814 30.0189 57.1545C28.7079 58.3275 27.0978 58.914 25.1888 58.914ZM26.8793 56.0504C27.9373 56.0504 28.9034 55.7859 29.7774 55.2569C30.6744 54.7049 31.376 53.9918 31.882 53.1178C32.388 52.2208 32.641 51.2548 32.641 50.2197L32.6755 48.9777C32.3765 49.2537 31.974 49.4607 31.468 49.5987C30.985 49.7137 30.3179 49.8172 29.4669 49.9092C29.4209 49.9092 29.3634 49.9207 29.2944 49.9437C29.2484 49.9437 29.2024 49.9437 29.1564 49.9437C27.2933 50.1047 25.9018 50.4497 24.9817 50.9787C24.0847 51.5078 23.6362 52.2898 23.6362 53.3248C23.6362 54.2219 23.9237 54.9004 24.4987 55.3604C25.0968 55.8204 25.8903 56.0504 26.8793 56.0504ZM51.4258 65.7452C49.3557 65.7452 47.5732 65.5267 46.0781 65.0897C44.5831 64.6757 43.433 64.0662 42.628 63.2612C41.846 62.4561 41.455 61.4901 41.455 60.3631C41.455 59.098 42.007 57.994 43.111 57.051C44.2151 56.1079 45.9401 55.4984 48.2862 55.2224C45.5491 54.9694 43.502 54.5094 42.145 53.8423C40.788 53.1523 40.1094 52.1748 40.1094 50.9097C40.1094 50.3577 40.3164 49.8862 40.7305 49.4952C41.1445 49.0812 41.662 48.8742 42.283 48.8742C42.398 48.8742 42.513 48.8857 42.628 48.9087C42.743 48.9087 42.858 48.9202 42.973 48.9432C43.111 48.9892 43.2605 49.0352 43.4215 49.0812C43.6056 49.1272 43.7781 49.1962 43.9391 49.2882C42.996 48.3452 42.5245 47.3561 42.5245 46.3211C42.5245 44.895 43.1455 43.7105 44.3876 42.7675C45.6526 41.8014 47.4582 41.2149 49.8043 41.0079V36.7643H53.5649V41.0079C55.1289 41.1229 56.4745 41.4219 57.6015 41.9049C58.7516 42.388 59.6256 43.032 60.2236 43.837C60.8446 44.642 61.1551 45.5736 61.1551 46.6316C61.1551 47.7816 60.7756 48.7822 60.0166 49.6332C59.2576 50.4612 58.1765 51.1052 56.7735 51.5653C55.3704 52.0023 53.7259 52.2208 51.8398 52.2208C50.6668 52.2208 49.6433 52.1403 48.7692 51.9793C47.9182 51.7953 47.2167 51.5883 46.6647 51.3583C46.1356 51.1283 45.5491 50.8407 44.9051 50.4957C44.3301 50.1737 43.8471 49.9437 43.456 49.8057C43.088 49.6677 42.674 49.5987 42.214 49.5987C41.8 49.5987 41.455 49.7252 41.179 49.9782C40.926 50.2312 40.7995 50.5417 40.7995 50.9097C40.7995 51.6688 41.156 52.3128 41.869 52.8418C42.582 53.3478 43.5595 53.7503 44.8016 54.0493C46.0666 54.3254 47.5617 54.5209 49.2867 54.6359C49.6778 54.6819 50.0688 54.7164 50.4598 54.7394C50.8738 54.7394 51.2878 54.7394 51.7018 54.7394C54.8069 54.7854 57.222 55.2339 58.9471 56.0849C60.6721 56.9359 61.5347 58.247 61.5347 60.0181C61.5347 61.1911 61.1206 62.2031 60.2926 63.0542C59.4876 63.9282 58.3145 64.5952 56.7735 65.0552C55.2554 65.5152 53.4729 65.7452 51.4258 65.7452ZM51.4603 62.9852C52.7024 62.9852 53.7949 62.8241 54.7379 62.5021C55.704 62.2031 56.44 61.7661 56.946 61.1911C57.475 60.6391 57.7395 59.9951 57.7395 59.259C57.7395 58.063 57.1875 57.1315 56.0835 56.4644C55.0024 55.7974 53.4614 55.4639 51.4603 55.4639C50.2183 55.4639 49.1257 55.6249 48.1827 55.9469C47.2397 56.2459 46.5036 56.6829 45.9746 57.258C45.4686 57.833 45.2156 58.5 45.2156 59.259C45.2156 59.9951 45.4686 60.6391 45.9746 61.1911C46.5036 61.7661 47.2397 62.2031 48.1827 62.5021C49.1257 62.8241 50.2183 62.9852 51.4603 62.9852ZM51.8398 51.5653C53.5419 51.5653 54.9104 51.1973 55.9455 50.4612C57.0035 49.7252 57.5325 48.7477 57.5325 47.5286C57.5325 46.3096 57.0035 45.3206 55.9455 44.5615C54.9104 43.8025 53.5419 43.423 51.8398 43.423C50.1378 43.423 48.7577 43.8025 47.6997 44.5615C46.6647 45.3206 46.1471 46.3096 46.1471 47.5286C46.1471 48.7477 46.6647 49.7252 47.6997 50.4612C48.7347 51.1973 50.1148 51.5653 51.8398 51.5653ZM72.0661 58.9485C69.5591 58.9485 67.4775 58.3735 65.8214 57.2235C64.1884 56.0734 63.2683 54.4404 63.0613 52.3243H66.822C67.006 53.5203 67.5695 54.4289 68.5125 55.0499C69.4555 55.6479 70.5941 55.9469 71.9281 55.9469C72.6182 55.9469 73.2852 55.8549 73.9292 55.6709C74.5962 55.4639 75.1482 55.1534 75.5853 54.7394C76.0223 54.3024 76.2408 53.7618 76.2408 53.1178C76.2408 52.4968 76.0568 52.0023 75.6888 51.6343C75.3437 51.2663 74.8377 50.9902 74.1707 50.8062C73.5267 50.5992 72.6412 50.4037 71.5141 50.2197C71.3761 50.1967 71.2266 50.1737 71.0656 50.1507C70.9276 50.1277 70.7781 50.1047 70.6171 50.0817C69.053 49.8747 67.7765 49.6217 66.7875 49.3227C65.7984 49.0237 65.0279 48.5982 64.4759 48.0461C63.9469 47.4941 63.6824 46.7581 63.6824 45.8381C63.6824 44.757 64.0159 43.837 64.6829 43.078C65.3499 42.319 66.2469 41.7554 67.374 41.3874C68.524 40.9964 69.8006 40.8009 71.2036 40.8009C73.6417 40.8009 75.6198 41.3759 77.1378 42.526C78.6559 43.676 79.4954 45.3091 79.6564 47.4251H76.0683C75.9533 46.2291 75.4588 45.3321 74.5847 44.734C73.7107 44.136 72.6527 43.837 71.4106 43.837C70.3296 43.837 69.375 44.09 68.547 44.596C67.719 45.079 67.305 45.8036 67.305 46.7696C67.305 47.2986 67.466 47.7471 67.788 48.1151C68.133 48.4832 68.6275 48.7822 69.2715 49.0122C69.9156 49.2192 70.7321 49.4032 71.7211 49.5642C71.9051 49.5872 72.0776 49.6102 72.2386 49.6332C72.3996 49.6562 72.5722 49.6792 72.7562 49.7022C72.8482 49.7252 72.9287 49.7367 72.9977 49.7367C73.0897 49.7367 73.1817 49.7482 73.2737 49.7712C74.7227 49.9782 75.9073 50.2427 76.8273 50.5647C77.7703 50.8867 78.4834 51.3353 78.9664 51.9103C79.4724 52.4623 79.7254 53.1868 79.7254 54.0839C79.7254 55.1419 79.3689 56.0389 78.6559 56.7749C77.9658 57.488 77.0343 58.0285 75.8613 58.3965C74.7112 58.7645 73.4462 58.9485 72.0661 58.9485Z" fill="#0A0A0A"/>
<rect x="1.20181" y="1.50625" width="97.7682" height="97.1337" rx="48.5669" stroke="#0A0A0A" stroke-width="1.2"/>
</svg>
