<svg width="111" height="111" viewBox="0 0 111 111" fill="none" xmlns="http://www.w3.org/2000/svg">
<circle cx="55.2129" cy="55.1045" r="42.7609" transform="rotate(-20.3652 55.2129 55.1045)" fill="white" stroke="#0A0A0A" stroke-width="0.429757"/>
<path d="M62.2566 27.7804L64.5781 20.6619L65.3466 20.9125L65.0784 21.7349L65.1728 21.7657C65.2605 21.6948 65.3788 21.6066 65.5276 21.501C65.6794 21.3939 65.8709 21.3172 66.1023 21.2708C66.3367 21.2229 66.6224 21.254 66.9595 21.3639C67.3954 21.5061 67.7441 21.7403 68.0056 22.0668C68.2671 22.3932 68.4258 22.7868 68.4819 23.2476C68.5379 23.7084 68.4773 24.2106 68.3 24.7544C68.1212 25.3027 67.8729 25.7475 67.5552 26.0889C67.2383 26.4281 66.8788 26.6539 66.4766 26.7664C66.0752 26.8766 65.6588 26.8614 65.2274 26.7207C64.8949 26.6122 64.6465 26.4703 64.4825 26.295C64.3191 26.1174 64.2066 25.9403 64.1449 25.7635C64.084 25.5845 64.0397 25.4383 64.012 25.3249L63.9446 25.3029L63.052 28.0398L62.2566 27.7804ZM64.5159 23.5054C64.3884 23.8964 64.3332 24.26 64.3503 24.5962C64.3682 24.9302 64.4598 25.2174 64.625 25.4577C64.791 25.6958 65.0335 25.8669 65.3526 25.9709C65.6851 26.0794 65.9912 26.0823 66.2708 25.9795C66.5534 25.8753 66.7996 25.6921 67.0095 25.4299C67.2222 25.1662 67.3887 24.85 67.5089 24.4815C67.6276 24.1175 67.6784 23.7711 67.6614 23.4424C67.6473 23.1121 67.5557 22.825 67.3867 22.5809C67.2207 22.3353 66.9691 22.1576 66.6321 22.0477C66.3085 21.9421 66.0099 21.9355 65.7362 22.0277C65.4632 22.1177 65.2229 22.2904 65.0153 22.5459C64.8084 22.7991 64.642 23.1189 64.5159 23.5054Z" fill="#0A0A0A"/>
<path d="M72.0606 26.1419L70.3023 28.9059L69.5964 28.4568L73.4935 22.3307L74.1995 22.7798L72.7685 25.0292L72.8283 25.0673C73.087 24.8985 73.3684 24.8128 73.6725 24.8102C73.98 24.8069 74.3142 24.92 74.6751 25.1496C74.9882 25.3488 75.2224 25.5861 75.3778 25.8614C75.5345 26.1347 75.5958 26.4412 75.5618 26.7809C75.531 27.1199 75.39 27.4868 75.1389 27.8817L73.2816 30.8011L72.5757 30.3521L74.4025 27.4805C74.6346 27.1155 74.7194 26.7731 74.6568 26.4532C74.5975 26.1325 74.4013 25.8662 74.0683 25.6544C73.837 25.5072 73.5985 25.4242 73.3529 25.4052C73.1092 25.3874 72.875 25.4387 72.65 25.5589C72.4271 25.6804 72.2306 25.8747 72.0606 26.1419Z" fill="#0A0A0A"/>
<path d="M77.1949 34.549C76.8588 34.1902 76.6492 33.7955 76.5663 33.3647C76.4849 32.9357 76.5266 32.5015 76.6914 32.062C76.8578 31.6243 77.1462 31.2132 77.5567 30.8286C77.9706 30.4407 78.4022 30.1772 78.8515 30.038C79.3025 29.9005 79.7394 29.8862 80.1622 29.9953C80.5867 30.1061 80.967 30.3408 81.3031 30.6996C81.6392 31.0583 81.848 31.4522 81.9293 31.8812C82.0123 32.312 81.9697 32.747 81.8016 33.1863C81.6351 33.6274 81.3449 34.0418 80.931 34.4297C80.5205 34.8143 80.0907 35.0745 79.6415 35.2104C79.1939 35.348 78.7579 35.3614 78.3334 35.2507C77.9106 35.1416 77.5311 34.9077 77.1949 34.549ZM77.7434 34.0351C77.9987 34.3076 78.2786 34.4663 78.5832 34.5113C78.8877 34.5564 79.1934 34.5145 79.5002 34.3857C79.8071 34.2569 80.0933 34.068 80.3589 33.8191C80.6245 33.5703 80.8324 33.2961 80.9826 32.9967C81.1328 32.6972 81.1962 32.3933 81.1728 32.0849C81.1494 31.7764 81.01 31.486 80.7546 31.2135C80.4993 30.941 80.2185 30.783 79.9123 30.7396C79.606 30.6962 79.2986 30.7397 78.99 30.8702C78.6815 31.0006 78.3944 31.1902 78.1288 31.4391C77.8632 31.688 77.6561 31.9613 77.5077 32.2591C77.3592 32.557 77.2975 32.8593 77.3227 33.1661C77.3478 33.4729 77.488 33.7626 77.7434 34.0351Z" fill="#0A0A0A"/>
<path d="M86.8183 38.5689L86.1966 38.9098L84.8398 36.4354L85.4615 36.0945L86.8183 38.5689ZM87.0009 36.1884L87.4032 36.9221L82.8522 39.4175C82.645 39.5311 82.506 39.6464 82.4354 39.7633C82.3679 39.8812 82.3427 39.9974 82.3597 40.1121C82.38 40.2277 82.4197 40.3393 82.4788 40.4471C82.5231 40.5279 82.5636 40.592 82.6003 40.6392C82.6391 40.6853 82.6701 40.7223 82.6933 40.7499L82.1161 41.2605C82.0702 41.221 82.0135 41.1618 81.946 41.0829C81.8764 41.0052 81.8041 40.8979 81.7291 40.7611C81.6155 40.5539 81.5487 40.3264 81.5287 40.0785C81.5098 39.8328 81.5558 39.5947 81.6666 39.3641C81.7785 39.1356 81.9733 38.9452 82.251 38.793L87.0009 36.1884Z" fill="#0A0A0A"/>
<path d="M84.4038 47.7003C84.2821 47.224 84.2886 46.7772 84.4234 46.3597C84.5588 45.9446 84.8045 45.5841 85.1606 45.2784C85.5173 44.9751 85.9682 44.7537 86.5131 44.6144C87.0627 44.4739 87.5679 44.4509 88.0287 44.5454C88.4901 44.6421 88.8798 44.8402 89.1978 45.1394C89.5164 45.441 89.7365 45.8299 89.8583 46.3062C89.98 46.7825 89.9732 47.2282 89.8378 47.6434C89.703 48.0609 89.4561 48.4216 89.0971 48.7256C88.7387 49.0318 88.2848 49.2552 87.7352 49.3957C87.1902 49.535 86.6882 49.5559 86.2291 49.4586C85.7705 49.3636 85.382 49.1653 85.0634 48.8637C84.7454 48.5644 84.5255 48.1766 84.4038 47.7003ZM85.132 47.5142C85.2245 47.876 85.3933 48.15 85.6385 48.3362C85.8836 48.5223 86.1717 48.6329 86.5026 48.6678C86.8336 48.7028 87.1754 48.6752 87.528 48.585C87.8806 48.4949 88.1949 48.3548 88.4708 48.1648C88.7466 47.9747 88.9486 47.7389 89.0767 47.4574C89.2048 47.1758 89.2226 46.8541 89.1301 46.4923C89.0376 46.1305 88.8676 45.8568 88.6202 45.6713C88.3727 45.4857 88.0824 45.3757 87.7491 45.3414C87.4159 45.307 87.073 45.3349 86.7203 45.425C86.3677 45.5152 86.0546 45.655 85.781 45.8444C85.5074 46.0339 85.3077 46.2691 85.1819 46.5501C85.0562 46.831 85.0395 47.1524 85.132 47.5142Z" fill="#0A0A0A"/>
<path d="M83.2993 55.6205C83.2997 55.2164 83.3521 54.869 83.4564 54.5784C83.5583 54.2878 83.6933 54.0457 83.8613 53.8521C84.027 53.6608 84.2044 53.5086 84.3936 53.3953L84.8609 54.0623C84.7615 54.1378 84.648 54.2334 84.5202 54.3491C84.3901 54.4648 84.2777 54.623 84.1829 54.8238C84.0858 55.027 84.037 55.2928 84.0367 55.6213C84.0362 56.0609 84.1422 56.4238 84.3546 56.7101C84.567 56.9963 84.9001 57.1396 85.3538 57.1401L86.4599 57.1413L86.46 57.0704C86.3608 57.0089 86.238 56.9213 86.0916 56.8077C85.9476 56.6964 85.8189 56.5356 85.7057 56.3251C85.5949 56.117 85.5396 55.8357 85.54 55.4812C85.5405 55.0415 85.6449 54.647 85.8533 54.2974C86.0616 53.9502 86.3645 53.6752 86.7618 53.4723C87.159 53.2719 87.6413 53.172 88.2085 53.1726C88.7663 53.1732 89.2519 53.2718 89.6653 53.4684C90.0811 53.6651 90.4022 53.9384 90.6287 54.2884C90.8576 54.6385 90.9718 55.0428 90.9713 55.5013C90.9709 55.8558 90.9115 56.137 90.7931 56.3448C90.677 56.5551 90.5445 56.7156 90.3955 56.8266C90.2488 56.9398 90.1282 57.0272 90.0336 57.0885L90.0335 57.1736L90.8985 57.1745L90.8977 57.9828L85.2962 57.9767C84.8282 57.9762 84.4478 57.8694 84.155 57.6564C83.8598 57.4457 83.6438 57.1619 83.5071 56.8048C83.3681 56.4502 83.2988 56.0554 83.2993 55.6205ZM86.2915 55.5954C86.2911 55.931 86.3676 56.2147 86.521 56.4465C86.6744 56.6783 86.8951 56.8546 87.1834 56.9755C87.4716 57.0963 87.8166 57.157 88.2184 57.1574C88.6107 57.1579 88.957 57.0991 89.2573 56.9813C89.5576 56.8635 89.793 56.6888 89.9634 56.4574C90.1338 56.2259 90.2192 55.9401 90.2196 55.5997C90.22 55.2452 90.1305 54.9497 89.9511 54.7131C89.7717 54.4789 89.5309 54.3026 89.2285 54.1841C88.9261 54.0679 88.5905 54.0097 88.2218 54.0093C87.8436 54.0089 87.5091 54.0676 87.2183 54.1854C86.9298 54.3057 86.7027 54.4827 86.537 54.7165C86.3737 54.9526 86.2918 55.2456 86.2915 55.5954Z" fill="#0A0A0A"/>
<path d="M85.0177 60.6998L90.2906 62.0597L90.0888 62.8424L89.2923 62.637L89.2782 62.692C89.5143 62.8554 89.6811 63.0839 89.7787 63.3775C89.8762 63.6712 89.8843 63.9759 89.8028 64.2918C89.7875 64.3513 89.7671 64.4254 89.7418 64.514C89.7165 64.6027 89.6957 64.6693 89.6793 64.7139L88.8554 64.5014C88.8693 64.4757 88.8959 64.4154 88.935 64.3206C88.9758 64.2286 89.0101 64.1288 89.0378 64.0212C89.1039 63.7649 89.1092 63.5222 89.0536 63.293C88.9996 63.0668 88.8939 62.8711 88.7363 62.706C88.5805 62.5437 88.3835 62.4319 88.1455 62.3705L84.8088 61.5099L85.0177 60.6998Z" fill="#0A0A0A"/>
<path d="M81.6356 69.6174C81.8022 69.3152 82.0103 69.0723 82.2599 68.8888C82.5116 68.7063 82.786 68.6026 83.0832 68.5775C83.3825 68.5535 83.6873 68.6271 83.9978 68.7982C84.2711 68.9488 84.4629 69.1247 84.5733 69.3259C84.6858 69.5282 84.741 69.7462 84.739 69.9799C84.7371 70.2136 84.7 70.4523 84.6278 70.6959C84.5565 70.9427 84.4744 71.1848 84.3813 71.4222C84.2588 71.7325 84.1573 71.9829 84.0766 72.1732C83.9969 72.3668 83.9581 72.5181 83.96 72.6271C83.9609 72.7382 84.0203 72.8263 84.1383 72.8913L84.1631 72.905C84.4695 73.0739 84.7537 73.1212 85.0158 73.0471C85.2768 72.9751 85.5003 72.7704 85.6863 72.433C85.8791 72.0832 85.9537 71.7667 85.91 71.4836C85.8664 71.2004 85.7799 70.9706 85.6505 70.794L86.2822 70.2354C86.5035 70.5194 86.6379 70.8093 86.6853 71.1053C86.7335 71.4045 86.7219 71.6949 86.6503 71.9766C86.5796 72.2615 86.4781 72.524 86.3458 72.7641C86.2614 72.9173 86.1457 73.0829 85.999 73.2611C85.8531 73.4425 85.673 73.5955 85.4585 73.7202C85.2429 73.847 84.9881 73.9103 84.694 73.9101C84.3999 73.9099 84.0635 73.8055 83.6847 73.5967L80.5426 71.8648L80.9465 71.1321L81.5923 71.488L81.6128 71.4508C81.5367 71.3441 81.4716 71.2002 81.4175 71.0193C81.3634 70.8383 81.348 70.6288 81.3713 70.3907C81.3947 70.1525 81.4827 69.8948 81.6356 69.6174ZM82.2322 70.092C82.0725 70.3818 81.9948 70.6574 81.9991 70.9189C82.0023 71.1824 82.066 71.4145 82.1902 71.6152C82.3132 71.8179 82.4741 71.9741 82.6728 72.0836L83.3434 72.4532C83.3233 72.4016 83.3268 72.3145 83.3539 72.1918C83.382 72.0724 83.4223 71.9381 83.4748 71.7889C83.5283 71.6429 83.5821 71.5012 83.6363 71.3638C83.6914 71.2295 83.7354 71.1202 83.7684 71.0359C83.8485 70.8317 83.9063 70.6315 83.9417 70.4351C83.978 70.2419 83.9692 70.0644 83.9154 69.9025C83.8626 69.7438 83.743 69.6131 83.5567 69.5104C83.3021 69.3701 83.0577 69.3582 82.8235 69.4747C82.5902 69.5944 82.3931 69.8001 82.2322 70.092Z" fill="#0A0A0A"/>
<path d="M76.9564 73.2161L82.4089 78.3477L81.8549 78.9363L81.225 78.3434L81.157 78.4157C81.1837 78.5253 81.2132 78.6698 81.2454 78.8494C81.2777 79.0324 81.2655 79.2384 81.2089 79.4675C81.1525 79.7 81.0027 79.9453 80.7598 80.2034C80.4455 80.5373 80.0851 80.7531 79.6784 80.8507C79.2717 80.9483 78.848 80.9244 78.4071 80.7789C77.9663 80.6334 77.5377 80.3647 77.1212 79.9727C76.7012 79.5775 76.4044 79.1635 76.2308 78.7307C76.0589 78.2995 76.0076 77.878 76.0771 77.4663C76.1482 77.0562 76.3393 76.6859 76.6503 76.3554C76.89 76.1007 77.1241 75.9364 77.3526 75.8626C77.5829 75.7904 77.7911 75.764 77.9772 75.7835C78.1651 75.8045 78.3163 75.8267 78.4307 75.85L78.4793 75.7983L76.3829 73.8254L76.9564 73.2161ZM79.8625 77.0806C79.563 76.7988 79.2575 76.594 78.946 76.4664C78.6362 76.3403 78.3374 76.3009 78.0495 76.3481C77.7634 76.3969 77.5054 76.5435 77.2754 76.7879C77.0356 77.0426 76.9027 77.3184 76.8766 77.6151C76.8506 77.9152 76.9115 78.216 77.0595 78.5174C77.2075 78.8223 77.4226 79.1075 77.7049 79.3732C77.9837 79.6356 78.2755 79.829 78.5802 79.9535C78.8851 80.0814 79.1839 80.1208 79.4767 80.0718C79.7696 80.0261 80.0375 79.8742 80.2805 79.6161C80.5137 79.3682 80.6469 79.1008 80.68 78.8139C80.7148 78.5286 80.6608 78.2377 80.5181 77.941C80.377 77.646 80.1585 77.3592 79.8625 77.0806Z" fill="#0A0A0A"/>
<path d="M74.2646 82.7854L72.5124 80.0176L73.2193 79.5701L77.103 85.7047L76.3961 86.1522L74.9701 83.8996L74.9102 83.9376C74.9528 84.2435 74.9105 84.5346 74.7833 84.8109C74.6554 85.0905 74.4107 85.3447 74.0493 85.5735C73.7358 85.772 73.4214 85.8829 73.1061 85.9063C72.7921 85.9317 72.4886 85.8567 72.1957 85.6812C71.9021 85.5091 71.6301 85.2253 71.3798 84.8299L69.529 81.9064L70.2359 81.4588L72.0564 84.3344C72.2877 84.6999 72.5615 84.9224 72.8776 85.002C73.193 85.0848 73.5175 85.0207 73.851 84.8096C74.0826 84.6629 74.2593 84.4825 74.3811 84.2683C74.5009 84.0554 74.5542 83.8216 74.5412 83.5669C74.5262 83.3135 74.434 83.0529 74.2646 82.7854Z" fill="#0A0A0A"/>
<path d="M64.3344 83.8955C64.8336 83.7339 65.2999 83.7047 65.7333 83.8078C66.1651 83.914 66.5433 84.1344 66.8677 84.4691C67.1907 84.8067 67.438 85.2409 67.6098 85.7716C67.7816 86.3022 67.8363 86.8012 67.774 87.2686C67.7101 87.7389 67.5406 88.144 67.2656 88.484C66.9891 88.8269 66.617 89.074 66.1492 89.2254C65.8794 89.3128 65.5984 89.3541 65.3062 89.3493C65.014 89.3445 64.7272 89.2759 64.4458 89.1434C64.1652 89.0131 63.9073 88.8035 63.6721 88.5144C63.4369 88.2254 63.2411 87.8391 63.0846 87.3557L62.9754 87.0184L66.9689 85.7256L67.1917 86.4137L64.0076 87.4444C64.1023 87.7367 64.2452 87.9786 64.4363 88.1702C64.6253 88.3624 64.848 88.4903 65.1046 88.5538C65.3589 88.618 65.63 88.6036 65.9178 88.5104C66.2348 88.4078 66.4837 88.2402 66.6643 88.0079C66.8435 87.7785 66.9545 87.519 66.9973 87.2293C67.0402 86.9397 67.0154 86.6521 66.923 86.3665L66.7745 85.9078C66.6478 85.5166 66.473 85.2067 66.25 84.9783C66.0255 84.7529 65.7689 84.6086 65.4802 84.5456C65.1922 84.4848 64.8875 84.5064 64.5659 84.6105C64.3568 84.6782 64.1774 84.7686 64.0277 84.8817C63.8764 84.9977 63.7582 85.1353 63.6732 85.2945C63.5888 85.456 63.542 85.6376 63.5328 85.8393L62.6939 85.8724C62.6904 85.5853 62.7522 85.3119 62.8792 85.0522C63.007 84.7947 63.1937 84.5654 63.4391 84.3642C63.6852 84.1653 63.9837 84.009 64.3344 83.8955Z" fill="#0A0A0A"/>
<path d="M59.1408 85.2425L59.4768 90.6776L58.67 90.7274L58.6192 89.9065L58.5626 89.91C58.4802 90.185 58.3144 90.4143 58.0652 90.5979C57.8161 90.7814 57.5288 90.8832 57.2032 90.9033C57.1419 90.9071 57.0652 90.9107 56.973 90.914C56.8809 90.9174 56.8111 90.9181 56.7636 90.9163L56.7111 90.0671C56.7398 90.0724 56.8054 90.079 56.9077 90.0869C57.0078 90.0973 57.1133 90.0991 57.2241 90.0922C57.4883 90.0759 57.7208 90.0058 57.9215 89.8821C58.1201 89.7609 58.2735 89.5999 58.3818 89.399C58.488 89.2007 58.5335 88.9788 58.5183 88.7335L58.3057 85.2941L59.1408 85.2425Z" fill="#0A0A0A"/>
<path d="M47.4358 82.3583L45.0408 89.4524L44.275 89.1939L44.5517 88.3743L44.4576 88.3425C44.3692 88.4124 44.25 88.4994 44.1001 88.6035C43.9472 88.709 43.7549 88.7838 43.523 88.8277C43.2882 88.8732 43.0028 88.8392 42.6669 88.7258C42.2325 88.5791 41.8862 88.3413 41.6281 88.0121C41.37 87.683 41.2153 87.2878 41.164 86.8265C41.1127 86.3651 41.1786 85.8635 41.3615 85.3216C41.546 84.7752 41.7988 84.333 42.12 83.9949C42.4404 83.659 42.8023 83.4369 43.2056 83.3286C43.6081 83.2225 44.0243 83.2421 44.4542 83.3872C44.7857 83.4991 45.0325 83.6436 45.1947 83.8206C45.3562 83.9998 45.4669 84.1781 45.5268 84.3555C45.5859 84.5351 45.6287 84.6818 45.6551 84.7955L45.7223 84.8181L46.6431 82.0907L47.4358 82.3583ZM45.1325 86.6096C45.264 86.22 45.323 85.857 45.3093 85.5206C45.2949 85.1865 45.2063 84.8984 45.0436 84.6563C44.88 84.4165 44.6393 84.243 44.3213 84.1356C43.9899 84.0237 43.6839 84.0177 43.4032 84.1175C43.1195 84.2188 42.8715 84.3995 42.6589 84.6595C42.4434 84.921 42.2737 85.2354 42.1497 85.6027C42.0272 85.9654 41.9728 86.3113 41.9865 86.6402C41.9972 86.9706 42.0858 87.2587 42.2523 87.5044C42.4158 87.7517 42.6654 87.932 43.0013 88.0454C43.3238 88.1543 43.6224 88.1641 43.897 88.0747C44.1709 87.9875 44.4129 87.8173 44.6232 87.564C44.8327 87.3129 45.0024 86.9948 45.1325 86.6096Z" fill="#0A0A0A"/>
<path d="M37.615 83.8955L39.4018 81.1499L40.103 81.6062L36.1428 87.6917L35.4415 87.2353L36.8957 85.0008L36.8362 84.9622C36.5759 85.1283 36.2936 85.2111 35.9894 85.2105C35.6819 85.2106 35.3489 85.094 34.9904 84.8607C34.6794 84.6583 34.4476 84.4186 34.2951 84.1417C34.1412 83.8668 34.0831 83.5596 34.1206 83.2203C34.1549 82.8817 34.2997 82.5162 34.5549 82.124L36.4422 79.2239L37.1435 79.6802L35.2871 82.5328C35.0512 82.8953 34.9629 83.2369 35.0222 83.5574C35.0782 83.8787 35.2716 84.1469 35.6024 84.3622C35.8322 84.5118 36.0698 84.5973 36.3152 84.6188C36.5586 84.6391 36.7934 84.5903 37.0196 84.4724C37.2438 84.3532 37.4423 84.1609 37.615 83.8955Z" fill="#0A0A0A"/>
<path d="M32.5678 75.4356C32.9003 75.7978 33.1057 76.1946 33.1842 76.6262C33.2612 77.0561 33.215 77.4899 33.0456 77.9276C32.8747 78.3635 32.5821 78.7717 32.1676 79.152C31.7497 79.5356 31.3154 79.7946 30.8647 79.9292C30.4124 80.062 29.9753 80.0717 29.5537 79.9583C29.1304 79.8431 28.7525 79.6045 28.4201 79.2423C28.0877 78.8801 27.883 78.4841 27.8061 78.0542C27.7276 77.6226 27.7747 77.188 27.9473 76.7505C28.1184 76.3112 28.4129 75.8998 28.8308 75.5162C29.2452 75.1359 29.6777 74.8801 30.1283 74.7489C30.5773 74.6159 31.0134 74.607 31.4367 74.7221C31.8584 74.8356 32.2354 75.0734 32.5678 75.4356ZM32.0141 75.9438C31.7616 75.6686 31.4833 75.507 31.1793 75.4588C30.8752 75.4107 30.5691 75.4494 30.261 75.575C29.9528 75.7007 29.6647 75.8865 29.3965 76.1326C29.1283 76.3788 28.9176 76.6507 28.7643 76.9486C28.6111 77.2465 28.5445 77.5498 28.5647 77.8584C28.585 78.1671 28.7213 78.459 28.9738 78.7341C29.2263 79.0092 29.5055 79.17 29.8113 79.2166C30.1171 79.2632 30.4249 79.2228 30.7348 79.0956C31.0447 78.9684 31.3337 78.7817 31.6019 78.5356C31.8701 78.2895 32.0799 78.0183 32.2314 77.722C32.383 77.4258 32.4478 77.1241 32.4258 76.817C32.4039 76.51 32.2666 76.2189 32.0141 75.9438Z" fill="#0A0A0A"/>
<path d="M22.9868 71.3167L23.612 70.9822L24.9431 73.4706L24.3179 73.805L22.9868 71.3167ZM22.7796 73.6952L22.3849 72.9575L26.9614 70.5092C27.1698 70.3977 27.3099 70.2839 27.3818 70.1677C27.4505 70.0506 27.4769 69.9346 27.461 69.8198C27.442 69.704 27.4035 69.5919 27.3455 69.4835C27.302 69.4022 27.2622 69.3378 27.2259 69.2901C27.1877 69.2436 27.157 69.2064 27.134 69.1785L27.7165 68.6739C27.762 68.7139 27.8181 68.7737 27.8848 68.8532C27.9536 68.9317 28.0248 69.0397 28.0983 69.1773C28.2098 69.3857 28.2743 69.6139 28.2917 69.8619C28.308 70.1078 28.2596 70.3454 28.1464 70.5748C28.0321 70.8022 27.8354 70.9905 27.5561 71.1399L22.7796 73.6952Z" fill="#0A0A0A"/>
<path d="M25.4954 62.2102C25.6122 62.6877 25.601 63.1345 25.4619 63.5506C25.3223 63.9643 25.0728 64.3222 24.7136 64.6242C24.3538 64.9238 23.9007 65.1405 23.3543 65.2742C22.8033 65.4089 22.2979 65.4267 21.8381 65.3275C21.3777 65.226 20.9901 65.024 20.6752 64.7214C20.3597 64.4166 20.1436 64.0254 20.0268 63.5479C19.91 63.0703 19.9214 62.6247 20.0611 62.211C20.2002 61.7949 20.4508 61.4368 20.8129 61.1365C21.1745 60.834 21.6307 60.6153 22.1817 60.4805C22.7281 60.3469 23.2303 60.3311 23.6884 60.4332C24.1459 60.5329 24.5324 60.7353 24.8479 61.0401C25.1627 61.3427 25.3786 61.7327 25.4954 62.2102ZM24.7653 62.3888C24.6766 62.0261 24.5106 61.7503 24.2674 61.5617C24.0241 61.373 23.7372 61.2595 23.4067 61.2211C23.0761 61.1827 22.7341 61.2068 22.3805 61.2933C22.027 61.3797 21.7113 61.5166 21.4334 61.7038C21.1556 61.8909 20.9512 62.1246 20.8202 62.4049C20.6893 62.6851 20.6681 63.0066 20.7569 63.3693C20.8456 63.732 21.0127 64.0075 21.2583 64.1956C21.5038 64.3837 21.793 64.4967 22.1259 64.5345C22.4587 64.5723 22.8019 64.5479 23.1555 64.4615C23.509 64.375 23.8236 64.2384 24.0991 64.0518C24.3746 63.8652 24.5767 63.632 24.7054 63.3524C24.8341 63.0727 24.8541 62.7515 24.7653 62.3888Z" fill="#0A0A0A"/>
<path d="M26.6816 54.3021C26.677 54.7062 26.621 55.0531 26.5137 55.3426C26.4088 55.6321 26.2713 55.8728 26.1013 56.0647C25.9337 56.2542 25.7547 56.4046 25.5643 56.5159L25.104 55.8441C25.2041 55.7696 25.3186 55.6752 25.4476 55.5608C25.5789 55.4465 25.693 55.2895 25.7898 55.0896C25.889 54.8875 25.9405 54.6222 25.9442 54.2937C25.9493 53.8541 25.8471 53.4901 25.6376 53.2017C25.4282 52.9133 25.0966 52.7665 24.6429 52.7614L23.5368 52.7487L23.536 52.8196C23.6346 52.8822 23.7565 52.971 23.9017 53.0862C24.0446 53.1989 24.1715 53.3611 24.2826 53.5727C24.3913 53.7819 24.4436 54.0638 24.4396 54.4183C24.4345 54.8579 24.326 55.2514 24.1141 55.5988C23.9021 55.9438 23.5965 56.2157 23.1971 56.4144C22.7978 56.6107 22.3145 56.7057 21.7473 56.6992C21.1896 56.6928 20.705 56.5892 20.2937 56.3883C19.88 56.1874 19.5617 55.9107 19.3388 55.5584C19.1136 55.206 19.0035 54.8005 19.0088 54.342C19.0128 53.9875 19.0751 53.707 19.1957 53.5004C19.3139 53.2914 19.4481 53.1322 19.5982 53.0228C19.7461 52.911 19.8676 52.825 19.9628 52.7646L19.9638 52.6795L19.0988 52.6696L19.1081 51.8614L24.7091 51.9254C25.1771 51.9307 25.5564 52.0414 25.847 52.2575C26.14 52.4712 26.353 52.7573 26.486 53.1157C26.6214 53.4718 26.6866 53.8673 26.6816 54.3021ZM23.6893 54.2963C23.6931 53.9607 23.6196 53.6762 23.4686 53.4428C23.3176 53.2095 23.0987 53.0309 22.8117 52.9071C22.5248 52.7832 22.1804 52.719 21.7787 52.7144C21.3864 52.71 21.0395 52.7651 20.738 52.8798C20.4365 52.9945 20.1993 53.1667 20.0265 53.3964C19.8537 53.6261 19.7654 53.9111 19.7615 54.2514C19.7574 54.6059 19.8438 54.9023 20.0208 55.1407C20.1977 55.3767 20.4367 55.5556 20.7379 55.6772C21.0391 55.7964 21.374 55.8582 21.7427 55.8624C22.1208 55.8667 22.4559 55.8114 22.7479 55.6966C23.0376 55.5794 23.2666 55.4047 23.4347 55.1726C23.6004 54.9382 23.6853 54.646 23.6893 54.2963Z" fill="#0A0A0A"/>
<path d="M25.0158 49.2053L19.7572 47.7909L19.9672 47.0103L20.7615 47.224L20.7762 47.1692C20.5418 47.0034 20.3773 46.7731 20.2828 46.4785C20.1883 46.1838 20.1834 45.879 20.2681 45.5641C20.2841 45.5047 20.3052 45.4308 20.3314 45.3424C20.3576 45.254 20.3791 45.1876 20.396 45.1432L21.2176 45.3642C21.2034 45.3898 21.1763 45.4498 21.1362 45.5442C21.0944 45.6358 21.0591 45.7352 21.0303 45.8425C20.9615 46.0981 20.9537 46.3408 21.007 46.5705C21.0586 46.7973 21.1623 46.994 21.3181 47.1608C21.4723 47.3246 21.6681 47.4385 21.9054 47.5023L25.2331 48.3974L25.0158 49.2053Z" fill="#0A0A0A"/>
<path d="M28.4902 40.3233C28.3206 40.6238 28.11 40.8645 27.8585 41.0455C27.6049 41.2253 27.3294 41.3262 27.032 41.3482C26.7325 41.3691 26.4284 41.2924 26.1197 41.118C25.848 40.9646 25.6581 40.7868 25.5497 40.5844C25.4394 40.381 25.3864 40.1624 25.3907 39.9287C25.3951 39.695 25.4347 39.4568 25.5094 39.214C25.5832 38.9679 25.6679 38.7267 25.7634 38.4902C25.8891 38.1812 25.9932 37.9319 26.0758 37.7424C26.1575 37.5497 26.1979 37.3988 26.1971 37.2897C26.1974 37.1786 26.1389 37.09 26.0216 37.0237L25.9969 37.0098C25.6923 36.8377 25.4086 36.7874 25.1457 36.8588C24.8839 36.9282 24.6583 37.1306 24.4689 37.466C24.2725 37.8138 24.1946 38.1295 24.2354 38.4131C24.2761 38.6966 24.3602 38.9274 24.4878 39.1053L23.8503 39.6573C23.6319 39.3711 23.5006 39.0798 23.4563 38.7833C23.4111 38.4836 23.4257 38.1933 23.5002 37.9124C23.5738 37.6283 23.6781 37.3668 23.8129 37.1281C23.8989 36.9758 24.0162 36.8113 24.1648 36.6347C24.3125 36.4548 24.4942 36.3037 24.71 36.1812C24.9269 36.0567 25.1823 35.996 25.4764 35.9992C25.7704 36.0024 26.1058 36.1104 26.4824 36.3231L29.6064 38.0873L29.195 38.8158L28.5529 38.4532L28.532 38.4903C28.607 38.5978 28.6706 38.7423 28.7228 38.9238C28.775 39.1053 28.7883 39.3149 28.7625 39.5528C28.7367 39.7907 28.646 40.0475 28.4902 40.3233ZM27.8986 39.8426C28.0613 39.5545 28.1418 39.2797 28.1402 39.0182C28.1398 38.7546 28.0785 38.5219 27.9564 38.3199C27.8354 38.1159 27.6762 37.9581 27.4786 37.8466L26.8118 37.47C26.8315 37.5218 26.8271 37.6089 26.7987 37.7313C26.7694 37.8504 26.7277 37.9843 26.6736 38.1329C26.6186 38.2783 26.5634 38.4195 26.5078 38.5564C26.4513 38.69 26.4061 38.7989 26.3722 38.8829C26.29 39.0862 26.2302 39.2858 26.1928 39.4818C26.1545 39.6746 26.1614 39.8523 26.2135 40.0147C26.2647 40.1739 26.3829 40.3058 26.5682 40.4104C26.8213 40.5534 27.0656 40.5678 27.301 40.4538C27.5355 40.3365 27.7347 40.1328 27.8986 39.8426Z" fill="#0A0A0A"/>
<path d="M33.2063 36.773L27.8071 31.5854L28.3671 31.0026L28.9909 31.6019L29.0596 31.5303C29.0341 31.4205 29.0061 31.2756 28.9757 31.0957C28.9453 30.9125 28.9596 30.7066 29.0186 30.4781C29.0774 30.2462 29.2297 30.0024 29.4753 29.7468C29.793 29.4162 30.1557 29.2042 30.5633 29.1108C30.971 29.0174 31.3945 29.0457 31.8338 29.1957C32.273 29.3457 32.6989 29.6189 33.1113 30.0151C33.5272 30.4147 33.8197 30.8317 33.9888 31.2663C34.1563 31.6992 34.2032 32.1212 34.1295 32.5322C34.0541 32.9416 33.8592 33.3099 33.5448 33.6371C33.3024 33.8893 33.0666 34.0512 32.8374 34.1226C32.6064 34.1924 32.398 34.2167 32.212 34.1953C32.0243 34.1723 31.8734 34.1486 31.7593 34.1241L31.7101 34.1752L33.786 36.1697L33.2063 36.773ZM30.3403 32.8787C30.6368 33.1637 30.9402 33.3716 31.2504 33.5024C31.5589 33.6317 31.8572 33.6742 32.1455 33.63C32.4321 33.5841 32.6917 33.4402 32.9242 33.1982C33.1666 32.946 33.3023 32.6716 33.3315 32.3752C33.3606 32.0754 33.3028 31.774 33.158 31.471C33.0131 31.1646 32.8009 30.8772 32.5214 30.6086C32.2453 30.3433 31.9556 30.1469 31.6521 30.0192C31.3486 29.8882 31.0502 29.8457 30.757 29.8917C30.4636 29.9343 30.1941 30.0835 29.9485 30.3391C29.7127 30.5845 29.5768 30.8505 29.5407 31.1371C29.503 31.422 29.5539 31.7135 29.6936 32.0116C29.8316 32.308 30.0471 32.5971 30.3403 32.8787Z" fill="#0A0A0A"/>
<path d="M35.997 27.2329L37.7206 30.0186L37.0091 30.4589L33.1889 24.2844L33.9005 23.8442L35.3031 26.1114L35.3634 26.0741C35.324 25.7678 35.3693 25.4771 35.4993 25.2021C35.6301 24.9239 35.8774 24.6722 36.2412 24.4471C36.5567 24.2519 36.8723 24.1442 37.1878 24.1241C37.502 24.102 37.8047 24.1802 38.0958 24.3586C38.3876 24.5338 38.6566 24.8204 38.9028 25.2183L40.7233 28.1608L40.0118 28.601L38.2212 25.7068C37.9936 25.339 37.7222 25.1136 37.4069 25.0308C37.0924 24.9447 36.7673 25.0054 36.4316 25.2131C36.1985 25.3574 36.0199 25.5359 35.8959 25.7488C35.774 25.9605 35.7182 26.1937 35.7285 26.4485C35.7409 26.7021 35.8304 26.9636 35.997 27.2329Z" fill="#0A0A0A"/>
<path d="M45.9381 26.2248C45.4372 26.3812 44.9707 26.4056 44.5384 26.298C44.1077 26.1874 43.7319 25.963 43.4109 25.625C43.0914 25.2841 42.8486 24.8474 42.6823 24.315C42.516 23.7825 42.4664 23.283 42.5336 22.8163C42.6024 22.3467 42.776 21.9433 43.0545 21.6062C43.3346 21.2662 43.7092 21.0229 44.1785 20.8764C44.4492 20.7918 44.7306 20.7534 45.0228 20.7612C45.3149 20.769 45.601 20.8406 45.8809 20.976C46.1602 21.1092 46.416 21.3215 46.6481 21.6129C46.8803 21.9044 47.0721 22.2927 47.2236 22.7777L47.3293 23.1161L43.3227 24.3675L43.107 23.6772L46.3015 22.6794C46.2099 22.3861 46.0696 22.1428 45.8804 21.9493C45.6934 21.7551 45.472 21.6249 45.2161 21.5588C44.9625 21.4919 44.6913 21.5036 44.4025 21.5938C44.0844 21.6931 43.8339 21.858 43.6508 22.0885C43.4693 22.3161 43.3556 22.5744 43.3098 22.8636C43.2639 23.1528 43.2857 23.4406 43.3752 23.7271L43.5189 24.1873C43.6416 24.5799 43.8132 24.8915 44.0338 25.1222C44.256 25.3499 44.5111 25.4968 44.7991 25.5629C45.0864 25.6266 45.3914 25.6081 45.714 25.5074C45.9238 25.4419 46.1042 25.3533 46.255 25.2418C46.4075 25.1274 46.5271 24.991 46.6138 24.8327C46.6998 24.6721 46.7485 24.491 46.7598 24.2894L47.599 24.265C47.5995 24.552 47.5349 24.8248 47.4052 25.0832C47.2747 25.3393 47.0857 25.5667 46.8383 25.7654C46.5901 25.9617 46.29 26.1149 45.9381 26.2248Z" fill="#0A0A0A"/>
<path d="M51.1452 24.9317L50.8654 19.4934L51.6727 19.4519L51.7149 20.2733L51.7716 20.2704C51.8569 19.9962 52.025 19.7686 52.2761 19.5877C52.5271 19.4068 52.8154 19.3079 53.1412 19.2911C53.2025 19.288 53.2793 19.2852 53.3715 19.2828C53.4637 19.2805 53.5335 19.2804 53.5809 19.2827L53.6247 20.1324C53.596 20.1268 53.5305 20.1195 53.4283 20.1106C53.3283 20.0992 53.2228 20.0963 53.1119 20.102C52.8475 20.1156 52.6144 20.1832 52.4124 20.3049C52.2126 20.424 52.0575 20.5834 51.9471 20.7832C51.8389 20.9805 51.7911 21.2018 51.8037 21.4473L51.9808 24.8887L51.1452 24.9317Z" fill="#0A0A0A"/>
</svg>
