<svg width="138" height="138" viewBox="0 0 138 138" fill="none" xmlns="http://www.w3.org/2000/svg">
<circle cx="68.8829" cy="68.8987" r="68.7938" transform="rotate(0.0743654 68.8829 68.8987)" fill="white"/>
<circle cx="68.8829" cy="68.8987" r="68.1938" transform="rotate(0.0743654 68.8829 68.8987)" stroke="#0A0A0A" stroke-width="1.2"/>
<path d="M27.2867 82.4566L18.179 60.5762L24.8027 59.618L27.1534 66.0308C28.2562 69.6927 29.0025 73.4526 29.3817 77.258L31.4607 76.9707C30.9083 73.6981 30.7213 70.3743 30.9031 67.0605L31.8035 58.6313L39.104 57.616L42.3422 65.4705C43.439 68.6017 44.1838 71.8452 44.5629 75.1412L46.6032 74.8634C45.9678 71.1359 45.6493 67.3612 45.6511 63.5799L46.2208 56.6681L52.477 55.7965L49.8942 79.2956L42.7581 80.2531L39.26 71.5475C38.2055 68.6078 37.5242 65.5473 37.2319 62.4378L35.1529 62.7251C35.7042 65.7993 35.8755 68.9296 35.6629 72.0456L34.5873 81.4026L27.2867 82.4566Z" fill="#0A0A0A"/>
<path d="M57.3701 69.609C57.3812 61.053 59.4279 48.3425 69.9658 48.3562C80.5037 48.3698 82.5164 61.9074 82.5064 69.6416C82.4963 77.3759 79.5789 90.5493 69.9111 90.5368C60.2433 90.5242 57.359 78.165 57.3701 69.609ZM76 69.5655C76.0103 61.6572 73.8942 53.3305 69.9981 53.3255C66.1019 53.3204 63.9255 61.6416 63.9153 69.5498C63.905 77.4581 66.0601 85.5432 69.9562 85.5482C73.8524 85.5533 75.9898 77.4158 76 69.5655Z" fill="#0A0A0A"/>
<path d="M90.1987 79.8025L87.5222 56.2676L94.1434 57.243L94.6277 64.0111C94.6726 67.8362 94.3438 71.6566 93.6461 75.4178L95.7146 75.7105C96.0931 72.4176 96.8333 69.1764 97.9218 66.0456L101.122 58.1995L108.439 59.2627L109.395 67.6653C109.576 70.9993 109.377 74.3431 108.802 77.6321L110.852 77.9248C111.263 74.1656 112.002 70.4497 113.061 66.8193L115.476 60.2387L121.73 61.1266L112.798 83.0222L105.664 82.0462L104.71 72.7155C104.511 69.5978 104.7 66.4675 105.273 63.3965L103.195 63.1037C102.878 66.2104 102.176 69.2655 101.104 72.1984L97.4868 80.8948L90.1987 79.8025Z" fill="#0A0A0A"/>
</svg>
