<svg width="32" height="33" viewBox="0 0 32 33" fill="none" xmlns="http://www.w3.org/2000/svg">
<path d="M3.39672 20.6539C2.5817 20.6539 1.9355 20.4618 1.45812 20.0776C0.980748 19.6817 0.742061 19.1403 0.742061 18.4533C0.742061 17.778 0.963283 17.2541 1.40573 16.8815C1.85981 16.5089 2.3954 16.2528 3.0125 16.113C3.62959 15.9617 4.32819 15.8569 5.10828 15.7987C5.77195 15.7521 6.27843 15.6706 6.62773 15.5542C6.98867 15.4377 7.16914 15.2223 7.16914 14.908C7.16914 14.3258 6.9712 13.8659 6.57533 13.5282C6.17946 13.1906 5.68462 13.0218 5.09082 13.0218C4.45044 13.0218 3.92067 13.2022 3.50151 13.5632C3.094 13.9125 2.84949 14.4015 2.76799 15.0302H1.05643C1.11465 14.2967 1.32422 13.668 1.68517 13.144C2.05775 12.6201 2.54094 12.2242 3.13475 11.9564C3.7402 11.677 4.40387 11.5372 5.12575 11.5372C5.85927 11.5372 6.50547 11.677 7.06435 11.9564C7.63487 12.2358 8.07731 12.6434 8.39168 13.1789C8.70605 13.7145 8.86323 14.3433 8.86323 15.0652V18.8201H9.98099V20.4443H7.18661V17.4753C6.95374 18.4068 6.50547 19.1694 5.84181 19.7632C5.17814 20.357 4.36312 20.6539 3.39672 20.6539ZM4.2525 19.2043C4.78809 19.2043 5.27711 19.0704 5.71955 18.8026C6.17364 18.5232 6.52876 18.1623 6.78491 17.7198C7.04106 17.2657 7.16914 16.7767 7.16914 16.2528L7.18661 15.624C7.03524 15.7637 6.83149 15.8685 6.57533 15.9384C6.33083 15.9966 5.99317 16.049 5.56237 16.0956C5.53908 16.0956 5.50998 16.1014 5.47505 16.113C5.45176 16.113 5.42847 16.113 5.40519 16.113C4.46208 16.1945 3.75767 16.3692 3.29194 16.637C2.83785 16.9048 2.6108 17.3007 2.6108 17.8246C2.6108 18.2787 2.75635 18.6222 3.04743 18.855C3.35015 19.0879 3.75184 19.2043 4.2525 19.2043ZM16.6782 24.112C15.6303 24.112 14.728 24.0014 13.9712 23.7801C13.2144 23.5706 12.6322 23.262 12.2247 22.8545C11.8288 22.447 11.6309 21.958 11.6309 21.3874C11.6309 20.7471 11.9103 20.1882 12.4692 19.7108C13.0281 19.2334 13.9013 18.9249 15.0889 18.7852C13.7034 18.6571 12.6671 18.4242 11.9802 18.0866C11.2932 17.7373 10.9497 17.2424 10.9497 16.6021C10.9497 16.3226 11.0545 16.0839 11.2641 15.886C11.4737 15.6764 11.7357 15.5716 12.05 15.5716C12.1082 15.5716 12.1665 15.5775 12.2247 15.5891C12.2829 15.5891 12.3411 15.5949 12.3993 15.6066C12.4692 15.6298 12.5449 15.6531 12.6264 15.6764C12.7195 15.6997 12.8068 15.7346 12.8883 15.7812C12.411 15.3038 12.1723 14.8032 12.1723 14.2792C12.1723 13.5573 12.4867 12.9577 13.1154 12.4803C13.7558 11.9913 14.6698 11.6944 15.8574 11.5896V9.44146H17.761V11.5896C18.5528 11.6479 19.2339 11.7992 19.8044 12.0437C20.3866 12.2882 20.829 12.6142 21.1318 13.0218C21.4461 13.4293 21.6033 13.9008 21.6033 14.4364C21.6033 15.0186 21.4112 15.5251 21.027 15.9559C20.6428 16.375 20.0955 16.701 19.3853 16.9339C18.675 17.1551 17.8426 17.2657 16.8878 17.2657C16.294 17.2657 15.7759 17.225 15.3334 17.1435C14.9026 17.0503 14.5475 16.9455 14.2681 16.8291C14.0003 16.7127 13.7034 16.5671 13.3774 16.3925C13.0863 16.2295 12.8418 16.113 12.6438 16.0432C12.4575 15.9733 12.248 15.9384 12.0151 15.9384C11.8055 15.9384 11.6309 16.0024 11.4912 16.1305C11.3631 16.2586 11.299 16.4158 11.299 16.6021C11.299 16.9863 11.4795 17.3123 11.8405 17.5801C12.2014 17.8362 12.6962 18.04 13.325 18.1914C13.9653 18.3311 14.7222 18.4301 15.5954 18.4883C15.7933 18.5116 15.9913 18.529 16.1892 18.5407C16.3988 18.5407 16.6084 18.5407 16.8179 18.5407C18.3898 18.5639 19.6123 18.791 20.4856 19.2218C21.3588 19.6526 21.7954 20.3163 21.7954 21.2128C21.7954 21.8066 21.5859 22.3189 21.1667 22.7497C20.7592 23.1921 20.1654 23.5298 19.3853 23.7627C18.6168 23.9955 17.7145 24.112 16.6782 24.112ZM16.6957 22.7148C17.3244 22.7148 17.8775 22.6333 18.3549 22.4703C18.8439 22.3189 19.2165 22.0977 19.4726 21.8066C19.7404 21.5272 19.8743 21.2011 19.8743 20.8286C19.8743 20.2231 19.5949 19.7516 19.036 19.4139C18.4888 19.0763 17.7087 18.9074 16.6957 18.9074C16.067 18.9074 15.5139 18.9889 15.0365 19.1519C14.5592 19.3033 14.1866 19.5245 13.9188 19.8156C13.6626 20.1067 13.5345 20.4443 13.5345 20.8286C13.5345 21.2011 13.6626 21.5272 13.9188 21.8066C14.1866 22.0977 14.5592 22.3189 15.0365 22.4703C15.5139 22.6333 16.067 22.7148 16.6957 22.7148ZM16.8878 16.9339C17.7494 16.9339 18.4422 16.7476 18.9661 16.375C19.5017 16.0024 19.7695 15.5076 19.7695 14.8905C19.7695 14.2734 19.5017 13.7727 18.9661 13.3885C18.4422 13.0043 17.7494 12.8122 16.8878 12.8122C16.0262 12.8122 15.3276 13.0043 14.792 13.3885C14.2681 13.7727 14.0061 14.2734 14.0061 14.8905C14.0061 15.5076 14.2681 16.0024 14.792 16.375C15.316 16.7476 16.0146 16.9339 16.8878 16.9339ZM27.1266 20.6714C25.8575 20.6714 24.8038 20.3803 23.9654 19.7981C23.1388 19.216 22.673 18.3893 22.5683 17.3181H24.4719C24.5651 17.9236 24.8503 18.3835 25.3277 18.6978C25.8051 19.0006 26.3814 19.1519 27.0567 19.1519C27.406 19.1519 27.7437 19.1054 28.0697 19.0122C28.4074 18.9074 28.6868 18.7502 28.908 18.5407C29.1292 18.3194 29.2398 18.0458 29.2398 17.7198C29.2398 17.4054 29.1467 17.1551 28.9604 16.9688C28.7858 16.7825 28.5296 16.6428 28.192 16.5497C27.8659 16.4449 27.4177 16.3459 26.8472 16.2528C26.7773 16.2411 26.7016 16.2295 26.6201 16.2178C26.5503 16.2062 26.4746 16.1945 26.3931 16.1829C25.6013 16.0781 24.9551 15.95 24.4545 15.7987C23.9538 15.6473 23.5638 15.4319 23.2843 15.1525C23.0165 14.873 22.8826 14.5005 22.8826 14.0347C22.8826 13.4875 23.0515 13.0218 23.3891 12.6375C23.7268 12.2533 24.1809 11.968 24.7514 11.7818C25.3335 11.5838 25.9797 11.4848 26.69 11.4848C27.9242 11.4848 28.9255 11.7759 29.6939 12.3581C30.4624 12.9403 30.8874 13.7669 30.9689 14.8381H29.1525C29.0943 14.2327 28.844 13.7786 28.4015 13.4758C27.9591 13.1731 27.4235 13.0218 26.7948 13.0218C26.2475 13.0218 25.7643 13.1498 25.3452 13.406C24.926 13.6505 24.7164 14.0173 24.7164 14.5063C24.7164 14.7741 24.7979 15.0011 24.9609 15.1874C25.1356 15.3737 25.3859 15.5251 25.7119 15.6415C26.038 15.7463 26.4513 15.8394 26.9519 15.9209C27.0451 15.9326 27.1324 15.9442 27.2139 15.9559C27.2954 15.9675 27.3827 15.9791 27.4759 15.9908C27.5225 16.0024 27.5632 16.0083 27.5981 16.0083C27.6447 16.0083 27.6913 16.0141 27.7379 16.0257C28.4714 16.1305 29.071 16.2644 29.5367 16.4274C30.0141 16.5904 30.3751 16.8175 30.6196 17.1085C30.8757 17.388 31.0038 17.7547 31.0038 18.2088C31.0038 18.7444 30.8233 19.1985 30.4624 19.5711C30.1131 19.932 29.6415 20.2056 29.0477 20.3919C28.4656 20.5782 27.8252 20.6714 27.1266 20.6714Z" fill="#0A0A0A"/>
</svg>
