<svg width="32" height="33" viewBox="0 0 32 33" fill="none" xmlns="http://www.w3.org/2000/svg">
<rect y="0.328125" width="32" height="32" rx="16" fill="white"/>
<path d="M5.85566 20.1511C5.19965 20.1511 4.67952 19.9965 4.29529 19.6872C3.91105 19.3686 3.71893 18.9328 3.71893 18.3799C3.71893 17.8363 3.89699 17.4146 4.25311 17.1147C4.61861 16.8148 5.0497 16.6086 5.5464 16.4962C6.04309 16.3744 6.60539 16.29 7.23329 16.2431C7.76747 16.2057 8.17513 16.1401 8.45628 16.0463C8.7468 15.9526 8.89206 15.7793 8.89206 15.5262C8.89206 15.0576 8.73274 14.6875 8.41411 14.4157C8.09547 14.1439 7.69718 14.008 7.21923 14.008C6.70379 14.008 6.27738 14.1533 5.94 14.4438C5.612 14.7249 5.41519 15.1186 5.34959 15.6246H3.97197C4.01882 15.0342 4.18751 14.5281 4.47803 14.1064C4.77792 13.6847 5.16685 13.3661 5.6448 13.1505C6.13212 12.9256 6.6663 12.8131 7.24734 12.8131C7.83776 12.8131 8.35788 12.9256 8.80772 13.1505C9.26693 13.3754 9.62305 13.7034 9.87608 14.1345C10.1291 14.5656 10.2556 15.0717 10.2556 15.6527V18.6751H11.1553V19.9824H8.90612V17.5927C8.71869 18.3424 8.35788 18.9562 7.8237 19.4342C7.28952 19.9121 6.6335 20.1511 5.85566 20.1511ZM6.54447 18.9843C6.97557 18.9843 7.36917 18.8766 7.7253 18.661C8.09079 18.4361 8.37662 18.1456 8.5828 17.7895C8.78897 17.424 8.89206 17.0304 8.89206 16.6086L8.90612 16.1026C8.78429 16.215 8.62028 16.2994 8.41411 16.3556C8.21731 16.4025 7.94553 16.4446 7.59878 16.4821C7.58004 16.4821 7.55661 16.4868 7.52849 16.4962C7.50975 16.4962 7.49101 16.4962 7.47226 16.4962C6.71316 16.5618 6.14618 16.7024 5.77131 16.9179C5.40582 17.1335 5.22308 17.4521 5.22308 17.8738C5.22308 18.2393 5.34022 18.5158 5.57451 18.7032C5.81817 18.8906 6.14149 18.9843 6.54447 18.9843ZM16.5459 22.9345C15.7024 22.9345 14.9761 22.8454 14.367 22.6674C13.7578 22.4987 13.2892 22.2504 12.9612 21.9223C12.6426 21.5943 12.4833 21.2007 12.4833 20.7415C12.4833 20.2261 12.7082 19.7762 13.158 19.392C13.6079 19.0078 14.3108 18.7594 15.2667 18.647C14.1514 18.5439 13.3174 18.3564 12.7644 18.0847C12.2115 17.8035 11.9351 17.4052 11.9351 16.8898C11.9351 16.6649 12.0194 16.4728 12.1881 16.3134C12.3568 16.1447 12.5676 16.0604 12.8207 16.0604C12.8675 16.0604 12.9144 16.0651 12.9612 16.0745C13.0081 16.0745 13.055 16.0791 13.1018 16.0885C13.158 16.1073 13.219 16.126 13.2846 16.1447C13.3595 16.1635 13.4298 16.1916 13.4954 16.2291C13.1112 15.8449 12.9191 15.4419 12.9191 15.0202C12.9191 14.4391 13.1721 13.9565 13.6782 13.5722C14.1936 13.1786 14.9293 12.9397 15.8852 12.8553V11.1262H17.4174V12.8553C18.0547 12.9022 18.603 13.024 19.0622 13.2208C19.5307 13.4176 19.8869 13.68 20.1305 14.008C20.3836 14.336 20.5101 14.7156 20.5101 15.1467C20.5101 15.6153 20.3554 16.0229 20.0462 16.3697C19.7369 16.707 19.2965 16.9694 18.7248 17.1569C18.1531 17.3349 17.483 17.424 16.7146 17.424C16.2366 17.424 15.8196 17.3912 15.4635 17.3256C15.1167 17.2506 14.8309 17.1663 14.606 17.0725C14.3904 16.9788 14.1514 16.8617 13.889 16.7211C13.6547 16.5899 13.4579 16.4962 13.2986 16.44C13.1487 16.3837 12.98 16.3556 12.7926 16.3556C12.6239 16.3556 12.4833 16.4072 12.3708 16.5102C12.2677 16.6133 12.2162 16.7398 12.2162 16.8898C12.2162 17.1991 12.3615 17.4615 12.652 17.677C12.9425 17.8832 13.3408 18.0472 13.8469 18.169C14.3623 18.2815 14.9715 18.3611 15.6743 18.408C15.8336 18.4267 15.993 18.4408 16.1523 18.4502C16.321 18.4502 16.4897 18.4502 16.6583 18.4502C17.9235 18.4689 18.9075 18.6517 19.6104 18.9984C20.3133 19.3452 20.6647 19.8793 20.6647 20.6009C20.6647 21.0789 20.496 21.4913 20.1586 21.838C19.8306 22.1941 19.3527 22.4659 18.7248 22.6533C18.1063 22.8408 17.38 22.9345 16.5459 22.9345ZM16.5599 21.8099C17.066 21.8099 17.5112 21.7443 17.8954 21.6131C18.289 21.4913 18.5889 21.3132 18.7951 21.0789C19.0106 20.854 19.1184 20.5916 19.1184 20.2917C19.1184 19.8044 18.8935 19.4248 18.4436 19.153C18.0032 18.8813 17.3753 18.7454 16.5599 18.7454C16.0539 18.7454 15.6087 18.811 15.2245 18.9422C14.8403 19.064 14.5404 19.2421 14.3248 19.4764C14.1186 19.7106 14.0155 19.9824 14.0155 20.2917C14.0155 20.5916 14.1186 20.854 14.3248 21.0789C14.5404 21.3132 14.8403 21.4913 15.2245 21.6131C15.6087 21.7443 16.0539 21.8099 16.5599 21.8099ZM16.7146 17.1569C17.4081 17.1569 17.9657 17.0069 18.3874 16.707C18.8185 16.4072 19.034 16.0089 19.034 15.5122C19.034 15.0155 18.8185 14.6125 18.3874 14.3032C17.9657 13.994 17.4081 13.8393 16.7146 13.8393C16.0211 13.8393 15.4588 13.994 15.0277 14.3032C14.606 14.6125 14.3951 15.0155 14.3951 15.5122C14.3951 16.0089 14.606 16.4072 15.0277 16.707C15.4494 17.0069 16.0117 17.1569 16.7146 17.1569ZM24.9557 20.1652C23.9342 20.1652 23.0861 19.9309 22.4113 19.4623C21.746 18.9937 21.3711 18.3283 21.2867 17.4661H22.819C22.894 17.9535 23.1236 18.3236 23.5078 18.5767C23.8921 18.8203 24.3559 18.9422 24.8995 18.9422C25.1807 18.9422 25.4524 18.9047 25.7148 18.8297C25.9866 18.7454 26.2115 18.6189 26.3896 18.4502C26.5676 18.2721 26.6567 18.0519 26.6567 17.7895C26.6567 17.5364 26.5817 17.3349 26.4318 17.185C26.2912 17.0351 26.085 16.9226 25.8132 16.8476C25.5508 16.7633 25.19 16.6836 24.7308 16.6086C24.6746 16.5993 24.6137 16.5899 24.5481 16.5805C24.4918 16.5712 24.4309 16.5618 24.3653 16.5524C23.7281 16.4681 23.2079 16.365 22.8049 16.2431C22.402 16.1213 22.088 15.9479 21.8631 15.723C21.6476 15.4981 21.5398 15.1982 21.5398 14.8234C21.5398 14.3829 21.6757 14.008 21.9474 13.6988C22.2192 13.3895 22.5847 13.1599 23.0439 13.0099C23.5125 12.8506 24.0326 12.771 24.6043 12.771C25.5977 12.771 26.4036 13.0053 27.0222 13.4738C27.6407 13.9424 27.9828 14.6078 28.0484 15.47H26.5864C26.5395 14.9827 26.338 14.6172 25.9819 14.3735C25.6258 14.1299 25.1947 14.008 24.6886 14.008C24.2482 14.008 23.8593 14.1111 23.5219 14.3173C23.1845 14.5141 23.0158 14.8093 23.0158 15.2029C23.0158 15.4184 23.0814 15.6012 23.2126 15.7511C23.3532 15.9011 23.5547 16.0229 23.8171 16.1166C24.0795 16.201 24.4122 16.276 24.8152 16.3416C24.8901 16.3509 24.9604 16.3603 25.026 16.3697C25.0916 16.379 25.1619 16.3884 25.2369 16.3978C25.2744 16.4072 25.3072 16.4118 25.3353 16.4118C25.3728 16.4118 25.4103 16.4165 25.4477 16.4259C26.0382 16.5102 26.5208 16.618 26.8957 16.7492C27.2799 16.8804 27.5704 17.0632 27.7672 17.2975C27.9734 17.5224 28.0765 17.8176 28.0765 18.1831C28.0765 18.6142 27.9312 18.9797 27.6407 19.2796C27.3596 19.5701 26.98 19.7903 26.502 19.9402C26.0335 20.0902 25.518 20.1652 24.9557 20.1652Z" fill="#0A0A0A"/>
</svg>
